<?xml version="1.0" encoding="utf-8"?>
<?xml-stylesheet type="text/xsl" href="rss1.xsl"?>
<rss version="2.0" xmlns:atom="http://www.w3.org/2005/Atom" xmlns:content="http://purl.org/rss/1.0/modules/content/" xmlns:dc="http://purl.org/dc/elements/1.1/" xmlns:media="http://search.yahoo.com/mrss/">
<channel>
 <title>Getty</title>
 <link>http://www.gettyimg.com/</link>
 <atom:link href="http://www.gettyimg.com/" rel="self" type="application/rss+xml" />

 
                <item>
                <title><![CDATA[【OTHERS】ANTONIA - Hasta Luego (2160p, 4K)]]></title>
                <link><![CDATA[https://sharemania.us/threads/antonia-hasta-luego-2160p-4k.245177/]]></link>
                <description><![CDATA[<article>
<blockquote class="messageText SelectQuoteContainer ugc baseHtml">
<img src="https://i.postimg.cc/mDVd6Lj5/ANTONIA-Hasta-Luego-mp4.jpg" class="bbCodeImage LbImage" alt="[​IMG]" data-url="https://i.postimg.cc/mDVd6Lj5/ANTONIA-Hasta-Luego-mp4.jpg" style=""><br>
<br>
<div class="bbCodeBlock bbCodeCode">
<div class="type">Code:</div>
<pre>General
Complete name                  : G:\ANTONIA - Hasta Luego.mp4
Format                         : MPEG-4
Format profile                 : Base Media
Codec ID                       : isom (isom/iso2/avc1/mp41)
File size                      : 400 MiB
Duration                       : 2 min 40 s
Overall bit rate               : 20.9 Mb/s
Frame rate                     : 25.000 FPS
Writing application            : Lavf58.76.100

Video
ID                             : 1
Format                         : AVC
Format/Info                    : Advanced Video Codec
Format profile                 : High@L5.1
Format settings                : CABAC / 4 Ref Frames
Format settings, CABAC         : Yes
Format settings, Reference fra : 4 frames
Codec ID                       : avc1
Codec ID/Info                  : Advanced Video Coding
Duration                       : 2 min 40 s
Bit rate                       : 20.7 Mb/s
Width                          : 3 840 pixels
Height                         : 1 654 pixels
Display aspect ratio           : 2.35:1
Frame rate mode                : Variable
Frame rate                     : 25.000 FPS
Color space                    : YUV
Chroma subsampling             : 4:2:0
Bit depth                      : 8 bits
Scan type                      : Progressive
Bits/(Pixel*Frame)             : 0.130
Stream size                    : 395 MiB (99%)
Tagged date                    : 2024-01-21 21:03:26 UTC
Color range                    : Limited
Color primaries                : BT.709
Transfer characteristics       : BT.709
Matrix coefficients            : BT.709
Codec configuration box        : avcC

Audio
ID                             : 2
Format                         : AAC LC
Format/Info                    : Advanced Audio Codec Low Complexity
Codec ID                       : mp4a-40-2
Duration                       : 2 min 40 s
Bit rate mode                  : Constant
Bit rate                       : 265 kb/s
Channel(s)                     : 2 channels
Channel layout                 : L R
Sampling rate                  : 48.0 kHz
Frame rate                     : 46.875 FPS (1024 SPF)
Compression mode               : Lossy
Stream size                    : 5.01 MiB (1%)
Default                        : Yes
Alternate group                : 1
Tagged date                    : 2024-01-21 21:03:26 UTC

</pre>
</div>
<div class="bbCodeBlock bbCodeVfcHH HiddenContent">
<div class="attribution type">Hidden Content:</div>
<blockquote>You must either reply or click 'Like' to see the hidden information contained here.</blockquote>
</div>
<div class="messageTextEndMarker">&nbsp;</div>
</blockquote>
</article>]]></description>
                <author><![CDATA[vitalya3]]></author>
                </item>

                
                <item>
                <title><![CDATA[【Actresses】Pihla Viitala - Hansel and Gretel Witch Hunters (2013)1080p]]></title>
                <link><![CDATA[https://sharemania.us/threads/pihla-viitala-hansel-and-gretel-witch-hunters-2013-1080p.245176/]]></link>
                <description><![CDATA[<article>
<blockquote class="messageText SelectQuoteContainer ugc baseHtml">
Pihla Viitala - Hansel and Gretel Witch Hunters (2013)1080p<br>
<br>
<a href="https://imgbox.com/yjwwA9pu" target="_blank" class="externalLink" rel="nofollow"><img src="https://thumbs2.imgbox.com/4e/0c/yjwwA9pu_t.jpg" class="bbCodeImage LbImage" alt="[​IMG]" data-url="https://thumbs2.imgbox.com/4e/0c/yjwwA9pu_t.jpg"></a> <a href="https://imgbox.com/mTfcYRoP" target="_blank" class="externalLink" rel="nofollow"><img src="https://thumbs2.imgbox.com/94/26/mTfcYRoP_t.jpg" class="bbCodeImage LbImage" alt="[​IMG]" data-url="https://thumbs2.imgbox.com/94/26/mTfcYRoP_t.jpg"></a> <a href="https://imgbox.com/sC8U7YU1" target="_blank" class="externalLink" rel="nofollow"><img src="https://thumbs2.imgbox.com/a4/36/sC8U7YU1_t.jpg" class="bbCodeImage LbImage" alt="[​IMG]" data-url="https://thumbs2.imgbox.com/a4/36/sC8U7YU1_t.jpg"></a> <a href="https://imgbox.com/1Z621jyD" target="_blank" class="externalLink" rel="nofollow"><img src="https://thumbs2.imgbox.com/c3/b5/1Z621jyD_t.jpg" class="bbCodeImage LbImage" alt="[​IMG]" data-url="https://thumbs2.imgbox.com/c3/b5/1Z621jyD_t.jpg"></a> <a href="https://imgbox.com/biKUrISC" target="_blank" class="externalLink" rel="nofollow"><img src="https://thumbs2.imgbox.com/69/22/biKUrISC_t.jpg" class="bbCodeImage LbImage" alt="[​IMG]" data-url="https://thumbs2.imgbox.com/69/22/biKUrISC_t.jpg"></a> <a href="https://imgbox.com/wrjYnHYC" target="_blank" class="externalLink" rel="nofollow"><img src="https://thumbs2.imgbox.com/f5/74/wrjYnHYC_t.jpg" class="bbCodeImage LbImage" alt="[​IMG]" data-url="https://thumbs2.imgbox.com/f5/74/wrjYnHYC_t.jpg"></a><br>
Duration: 0:00:57 Resolution: 1920x1080 Format: mp4 Size: 32.56 MB<br>
<a href="https://filejoker.net/9pbe5xtc3gfe" target="_blank" class="externalLink" rel="nofollow">https://filejoker.net/9pbe5xtc3gfe</a>
<div class="messageTextEndMarker">&nbsp;</div>
</blockquote>
</article>]]></description>
                <author><![CDATA[piqeros]]></author>
                </item>

                
                <item>
                <title><![CDATA[【Apple Music】WEB-RiP - Margaret - Tańcz głupia (2160p, 4K)]]></title>
                <link><![CDATA[https://sharemania.us/threads/margaret-tan%CC%81cz-g%C5%82upia-2160p-4k.245179/]]></link>
                <description><![CDATA[<article>
<blockquote class="messageText SelectQuoteContainer ugc baseHtml">
<img src="https://i.postimg.cc/gkVw7Sbh/Margaret-Tan-cz-g-upia-mp4.jpg" class="bbCodeImage LbImage" alt="[​IMG]" data-url="https://i.postimg.cc/gkVw7Sbh/Margaret-Tan-cz-g-upia-mp4.jpg" style=""><br>
<br>
<div class="bbCodeBlock bbCodeCode">
<div class="type">Code:</div>
<pre>General
Complete name                  : G:\Новая папка\Margaret - Tańcz głupia.mp4
Format                         : MPEG-4
Format profile                 : Base Media
Codec ID                       : isom (isom/iso2/mp41)
File size                      : 392 MiB
Duration                       : 2 min 37 s
Overall bit rate               : 20.9 Mb/s
Frame rate                     : 25.000 FPS
Movie name                     : Tańcz głupia (Official Video)
Performer                      : Margaret
Genre                          : Pop
ContentType                    : Music Video
Recorded date                  : 2023-05-26
ISRC                           : PLB392300611

Video
ID                             : 1
Format                         : HEVC
Format/Info                    : High Efficiency Video Coding
Format profile                 : Main 10@L5@High
Codec ID                       : hvc1
Codec ID/Info                  : High Efficiency Video Coding
Duration                       : 2 min 37 s
Bit rate                       : 20.6 Mb/s
Width                          : 3 840 pixels
Height                         : 2 160 pixels
Display aspect ratio           : 16:9
Frame rate mode                : Constant
Frame rate                     : 25.000 FPS
Color space                    : YUV
Chroma subsampling             : 4:2:0
Bit depth                      : 10 bits
Scan type                      : Progressive
Bits/(Pixel*Frame)             : 0.099
Stream size                    : 386 MiB (99%)
Title                          : Core Media Video
Color range                    : Limited
Color primaries                : BT.709
Transfer characteristics       : BT.709
Matrix coefficients            : BT.709
Codec configuration box        : hvcC

Audio
ID                             : 2
Format                         : AAC LC
Format/Info                    : Advanced Audio Codec Low Complexity
Codec ID                       : mp4a-40-2
Duration                       : 2 min 37 s
Bit rate mode                  : Constant
Bit rate                       : 258 kb/s
Channel(s)                     : 2 channels
Channel layout                 : L R
Sampling rate                  : 48.0 kHz
Frame rate                     : 46.875 FPS (1024 SPF)
Compression mode               : Lossy
Stream size                    : 4.84 MiB (1%)
Title                          : Core Media Audio
Default                        : Yes
Alternate group                : 1

</pre>
</div>
<div class="bbCodeBlock bbCodeVfcHH HiddenContent">
<div class="attribution type">Hidden Content:</div>
<blockquote>You must either reply or click 'Like' to see the hidden information contained here.</blockquote>
</div>
<div class="messageTextEndMarker">&nbsp;</div>
</blockquote>
</article>]]></description>
                <author><![CDATA[vitalya3]]></author>
                </item>

                
                <item>
                <title><![CDATA[【OTHERS】Vamero x Jost – Cure For Lonely (2160p, 4K)]]></title>
                <link><![CDATA[https://sharemania.us/threads/vamero-x-jost-%E2%80%93-cure-for-lonely-2160p-4k.245175/]]></link>
                <description><![CDATA[<article>
<blockquote class="messageText SelectQuoteContainer ugc baseHtml">
<img src="https://i.postimg.cc/mgHvn47L/Vamero-x-Jost-Cure-For-Lonely-mp4.jpg" class="bbCodeImage LbImage" alt="[​IMG]" data-url="https://i.postimg.cc/mgHvn47L/Vamero-x-Jost-Cure-For-Lonely-mp4.jpg" style=""><br>
<br>
<div class="bbCodeBlock bbCodeCode">
<div class="type">Code:</div>
<pre>General
Complete name                  : G:\Vamero x Jost – Cure For Lonely.mp4
Format                         : MPEG-4
Format profile                 : Base Media
Codec ID                       : isom (isom/iso2/avc1/mp41)
File size                      : 315 MiB
Duration                       : 2 min 8 s
Overall bit rate               : 20.6 Mb/s
Frame rate                     : 25.000 FPS
Writing application            : Lavf58.76.100

Video
ID                             : 1
Format                         : AVC
Format/Info                    : Advanced Video Codec
Format profile                 : High@L5.1
Format settings                : CABAC / 4 Ref Frames
Format settings, CABAC         : Yes
Format settings, Reference fra : 4 frames
Codec ID                       : avc1
Codec ID/Info                  : Advanced Video Coding
Duration                       : 2 min 8 s
Bit rate                       : 20.4 Mb/s
Width                          : 3 840 pixels
Height                         : 2 160 pixels
Display aspect ratio           : 16:9
Frame rate mode                : Variable
Frame rate                     : 25.000 FPS
Color space                    : YUV
Chroma subsampling             : 4:2:0
Bit depth                      : 8 bits
Scan type                      : Progressive
Bits/(Pixel*Frame)             : 0.098
Stream size                    : 311 MiB (99%)
Tagged date                    : 2024-05-22 11:17:46 UTC
Color range                    : Limited
Color primaries                : BT.709
Transfer characteristics       : BT.709
Matrix coefficients            : BT.709
Codec configuration box        : avcC

Audio
ID                             : 2
Format                         : AAC LC
Format/Info                    : Advanced Audio Codec Low Complexity
Codec ID                       : mp4a-40-2
Duration                       : 2 min 8 s
Bit rate mode                  : Constant
Bit rate                       : 265 kb/s
Channel(s)                     : 2 channels
Channel layout                 : L R
Sampling rate                  : 48.0 kHz
Frame rate                     : 46.875 FPS (1024 SPF)
Compression mode               : Lossy
Stream size                    : 4.01 MiB (1%)
Default                        : Yes
Alternate group                : 1
Tagged date                    : 2024-05-22 11:17:46 UTC

</pre>
</div>
<div class="bbCodeBlock bbCodeVfcHH HiddenContent">
<div class="attribution type">Hidden Content:</div>
<blockquote>You must either reply or click 'Like' to see the hidden information contained here.</blockquote>
</div>
<div class="messageTextEndMarker">&nbsp;</div>
</blockquote>
</article>]]></description>
                <author><![CDATA[vitalya3]]></author>
                </item>

                
                <item>
                <title><![CDATA[【Apple Music】WEB-RiP - NewJeans - How Sweet (Apple Music 1080p)]]></title>
                <link><![CDATA[https://sharemania.us/threads/newjeans-how-sweet-apple-music-1080p.245178/]]></link>
                <description><![CDATA[<article>
<blockquote class="messageText SelectQuoteContainer ugc baseHtml">
<img src="https://images2.imgbox.com/b1/7e/KM4gHDL8_o.jpg" class="bbCodeImage LbImage" alt="[​IMG]" data-url="https://images2.imgbox.com/b1/7e/KM4gHDL8_o.jpg" style=""> <br>
<br>
<span data-s9e-mediaembed="youtube" style="display:inline-block;width:100%;max-width:640px"><span style="display:block;overflow:hidden;position:relative;padding-bottom:56.25%"><iframe allowfullscreen="" loading="lazy" scrolling="no" style="background:url(https://i.ytimg.com/vi/Q3K0TOvTOno/hqdefault.jpg) 50% 50% / cover;border:0;height:100%;left:0;position:absolute;width:100%" src="https://www.youtube.com/embed/Q3K0TOvTOno"></iframe></span></span><br>
<br>
<div class="bbCodeBlock bbCodeVfcHH HiddenContent">
<div class="attribution type">Hidden Content:</div>
<blockquote>You must reply before you can see the hidden data contained here.</blockquote>
</div>
<div class="messageTextEndMarker">&nbsp;</div>
</blockquote>
</article>]]></description>
                <author><![CDATA[Eric Lyn]]></author>
                </item>

                </channel></rss>